<svg width="622" height="68" viewBox="0 0 622 68" fill="none" xmlns="http://www.w3.org/2000/svg">
<path d="M574.289 67V1.54545H621.462V15.8636H592.059V27.1136H619.033V41.4318H592.059V52.6818H621.334V67H574.289Z" fill="white"/>
<path d="M516.871 67V1.54545H545.124C549.982 1.54545 554.233 2.42969 557.876 4.19815C561.52 5.96662 564.354 8.51278 566.378 11.8366C568.402 15.1605 569.414 19.1449 569.414 23.7898C569.414 28.4773 568.37 32.4297 566.282 35.647C564.215 38.8643 561.307 41.2933 557.557 42.9339C553.828 44.5746 549.471 45.3949 544.485 45.3949H527.61V31.5881H540.906C542.994 31.5881 544.773 31.3324 546.243 30.821C547.734 30.2884 548.874 29.4467 549.663 28.2962C550.472 27.1456 550.877 25.6435 550.877 23.7898C550.877 21.9148 550.472 20.3913 549.663 19.2195C548.874 18.0263 547.734 17.1527 546.243 16.5987C544.773 16.0234 542.994 15.7358 540.906 15.7358H534.641V67H516.871ZM555.224 36.9574L571.587 67H552.283L536.303 36.9574H555.224Z" fill="white"/>
<path d="M494.256 1.54545H512.026V43.4773C512.026 48.4631 510.833 52.7777 508.446 56.4212C506.081 60.0433 502.779 62.8452 498.539 64.8267C494.299 66.7869 489.377 67.767 483.773 67.767C478.127 67.767 473.184 66.7869 468.944 64.8267C464.704 62.8452 461.401 60.0433 459.036 56.4212C456.692 52.7777 455.52 48.4631 455.52 43.4773V1.54545H473.29V41.9432C473.29 43.9673 473.738 45.7784 474.633 47.3764C475.527 48.9531 476.763 50.1889 478.34 51.0838C479.938 51.9787 481.749 52.4261 483.773 52.4261C485.819 52.4261 487.63 51.9787 489.206 51.0838C490.783 50.1889 492.019 48.9531 492.914 47.3764C493.809 45.7784 494.256 43.9673 494.256 41.9432V1.54545Z" fill="white"/>
<path d="M432.106 23.1506C431.829 22.0213 431.392 21.0305 430.796 20.1783C430.199 19.3047 429.453 18.5696 428.558 17.973C427.685 17.3551 426.662 16.897 425.49 16.5987C424.34 16.2791 423.072 16.1193 421.687 16.1193C418.704 16.1193 416.158 16.8331 414.048 18.2607C411.96 19.6882 410.362 21.7443 409.254 24.429C408.168 27.1136 407.624 30.3523 407.624 34.1449C407.624 37.9801 408.146 41.2614 409.19 43.9886C410.234 46.7159 411.79 48.804 413.857 50.2528C415.923 51.7017 418.491 52.4261 421.559 52.4261C424.265 52.4261 426.513 52.032 428.303 51.2436C430.114 50.4553 431.467 49.3366 432.362 47.8878C433.256 46.4389 433.704 44.7344 433.704 42.7741L436.772 43.0938H421.815V30.4375H450.835V39.5142C450.835 45.4801 449.567 50.5831 447.031 54.8232C444.517 59.0419 441.044 62.2805 436.612 64.5391C432.202 66.7763 427.141 67.8949 421.431 67.8949C415.06 67.8949 409.467 66.5419 404.652 63.8359C399.837 61.13 396.076 57.2734 393.37 52.2663C390.685 47.2592 389.343 41.304 389.343 34.4006C389.343 28.9886 390.163 24.1946 391.804 20.0185C393.466 15.8423 395.767 12.3161 398.707 9.43963C401.648 6.5419 405.046 4.35795 408.903 2.88778C412.759 1.3963 416.893 0.650566 421.303 0.650566C425.181 0.650566 428.782 1.20454 432.106 2.3125C435.451 3.39915 438.402 4.95454 440.959 6.97869C443.537 8.98153 445.614 11.3572 447.191 14.1058C448.768 16.8544 449.727 19.8693 450.068 23.1506H432.106Z" fill="white"/>
<path d="M384.777 1.54545V67H367.007V1.54545H384.777Z" fill="white"/>
<path d="M318.049 67V1.54545H364.072V15.8636H335.819V27.1136H361.259V41.4318H335.819V67H318.049Z" fill="white"/>
<path d="M313.243 1.54545V67H298.414L274.763 32.6108H274.38V67H256.61V1.54545H271.695L294.962 35.8068H295.473V1.54545H313.243Z" fill="white"/>
<path d="M251.988 34.2727C251.988 41.5597 250.571 47.7067 247.737 52.7138C244.903 57.6996 241.079 61.4815 236.264 64.0597C231.448 66.6165 226.079 67.8949 220.156 67.8949C214.19 67.8949 208.799 66.6058 203.984 64.0277C199.19 61.4283 195.376 57.6357 192.542 52.6499C189.729 47.6428 188.323 41.517 188.323 34.2727C188.323 26.9858 189.729 20.8494 192.542 15.8636C195.376 10.8565 199.19 7.07457 203.984 4.51775C208.799 1.93963 214.19 0.650566 220.156 0.650566C226.079 0.650566 231.448 1.93963 236.264 4.51775C241.079 7.07457 244.903 10.8565 247.737 15.8636C250.571 20.8494 251.988 26.9858 251.988 34.2727ZM233.707 34.2727C233.707 30.3523 233.185 27.0497 232.141 24.3651C231.118 21.6591 229.595 19.6136 227.57 18.2287C225.568 16.8224 223.096 16.1193 220.156 16.1193C217.215 16.1193 214.733 16.8224 212.709 18.2287C210.706 19.6136 209.183 21.6591 208.139 24.3651C207.116 27.0497 206.604 30.3523 206.604 34.2727C206.604 38.1932 207.116 41.5064 208.139 44.2124C209.183 46.897 210.706 48.9425 212.709 50.3487C214.733 51.7337 217.215 52.4261 220.156 52.4261C223.096 52.4261 225.568 51.7337 227.57 50.3487C229.595 48.9425 231.118 46.897 232.141 44.2124C233.185 41.5064 233.707 38.1932 233.707 34.2727Z" fill="white"/>
<path d="M184.117 26.0909H166.091C165.964 24.5994 165.623 23.2464 165.069 22.032C164.536 20.8175 163.79 19.7734 162.831 18.8999C161.894 18.005 160.754 17.3232 159.412 16.8544C158.069 16.3643 156.546 16.1193 154.841 16.1193C151.858 16.1193 149.334 16.8437 147.267 18.2926C145.221 19.7415 143.666 21.8189 142.601 24.5249C141.557 27.2308 141.035 30.4801 141.035 34.2727C141.035 38.2784 141.567 41.6342 142.633 44.3402C143.719 47.0249 145.285 49.049 147.331 50.4126C149.376 51.755 151.837 52.4261 154.714 52.4261C156.354 52.4261 157.824 52.2237 159.124 51.8189C160.424 51.3928 161.553 50.7855 162.512 49.9972C163.471 49.2088 164.248 48.2606 164.845 47.1527C165.463 46.0234 165.878 44.7557 166.091 43.3494L184.117 43.4773C183.904 46.2472 183.126 49.0703 181.784 51.9467C180.442 54.8018 178.535 57.4439 176.063 59.8729C173.613 62.2805 170.576 64.2195 166.954 65.6896C163.332 67.1598 159.124 67.8949 154.33 67.8949C148.321 67.8949 142.931 66.6058 138.158 64.0277C133.407 61.4496 129.646 57.657 126.876 52.6499C124.128 47.6428 122.753 41.517 122.753 34.2727C122.753 26.9858 124.16 20.8494 126.972 15.8636C129.785 10.8565 133.577 7.07457 138.35 4.51775C143.123 1.93963 148.449 0.650566 154.33 0.650566C158.464 0.650566 162.267 1.2152 165.74 2.34446C169.213 3.47372 172.26 5.125 174.88 7.29829C177.501 9.45028 179.611 12.103 181.209 15.2564C182.807 18.4098 183.776 22.0213 184.117 26.0909Z" fill="white"/>
<path d="M118.203 1.54545V67H103.374L79.7233 32.6108H79.3398V67H61.5699V1.54545H76.6551L99.9222 35.8068H100.434V1.54545H118.203Z" fill="white"/>
<path d="M38.9545 1.54545H56.7244V43.4773C56.7244 48.4631 55.5313 52.7777 53.1449 56.4212C50.7798 60.0433 47.4773 62.8452 43.2372 64.8267C38.9972 66.7869 34.0753 67.767 28.4716 67.767C22.8253 67.767 17.8821 66.7869 13.642 64.8267C9.40199 62.8452 6.09943 60.0433 3.73438 56.4212C1.39062 52.7777 0.21875 48.4631 0.21875 43.4773V1.54545H17.9886V41.9432C17.9886 43.9673 18.4361 45.7784 19.331 47.3764C20.2259 48.9531 21.4617 50.1889 23.0384 51.0838C24.6364 51.9787 26.4474 52.4261 28.4716 52.4261C30.517 52.4261 32.3281 51.9787 33.9048 51.0838C35.4815 50.1889 36.7173 48.9531 37.6122 47.3764C38.5071 45.7784 38.9545 43.9673 38.9545 41.9432V1.54545Z" fill="white"/>
</svg>
